<svg width="202" height="40" viewBox="0 0 202 40" fill="none" xmlns="http://www.w3.org/2000/svg">
<!-- Owl head/body - purple -->
<path d="M32.83 21.423V25.7561L29.974 28.5669L27.8543 26.5668L22.6126 21.6212L21.9983 22.114L21.3977 21.5958L16.1348 26.5743L14.0254 28.5697L11.1666 25.7561V21.423L7.75002 18.8504L7.54054 19.0839V27.2752L13.6065 33.2451H14.3601L18.6269 29.2085L21.9941 26.0231L25.3655 29.2043L29.6473 33.2451H30.3906L36.4561 27.2752V19.0839L36.2471 18.8504L32.83 21.423Z" fill="#7c3aed"/>
<path d="M36.9569 9.58648L31.7689 3.80722H12.2281L7.04054 9.58648L9.94829 11.7759L13.6586 7.64233L13.8465 6.87361H30.1514L30.5111 7.83439L34.0491 11.7759L36.9569 9.58648Z" fill="#7c3aed"/>
<path d="M41.6384 14.7937L38.7302 16.9831L39.5526 17.8992V28.5708L31.6607 36.338H28.422L26.9481 34.9475L25.6286 37.6123L25.5769 37.7168L25.5114 37.8133L25.1946 38.2779L26.9815 39.9641H33.1459L43.1792 30.0899V16.51L41.6384 14.7937Z" fill="#7c3aed"/>
<path d="M18.4946 37.8166L18.4296 37.7215L18.3788 37.6184L17.056 34.9531L15.5915 36.338H12.3401L4.44774 28.5708V17.8992L5.27011 16.9831L2.36237 14.7937L0.82164 16.51V30.0899L10.855 39.9641H17.0353L18.8123 38.2831L18.4946 37.8166Z" fill="#7c3aed"/>
<mask id="mask0_7_3083" style="mask-type:luminance" maskUnits="userSpaceOnUse" x="1" y="2" width="42" height="28">
<path d="M34.4461 6.06755L32.6681 4.93447H11.3371L9.52431 6.06755L1.80608 2.73471L3.70834 7.04385L12.2259 13.4562L11.0829 15.9295L15.5144 19.2666L17.6478 24.3322L18.2735 29.3083L22.0031 24.1321L25.7506 29.2636L26.518 24.8627L28.2244 20.1709L34.5953 15.0535L33.6911 11.9744L40.4358 7.15683L42.1996 2.73471L34.4461 6.06755Z" fill="white"/>
</mask>
<g mask="url(#mask0_7_3083)">
<!-- Inner owl face/detail - purple -->
<path d="M22.0031 0.19957L20.8329 3.88216L19.9093 3.29703L20.4681 5.02934L20.4337 5.13903H16.9154L16.9163 5.1395H14.6366H13.6612L13.0229 5.87761L11.0566 8.15222L8.15919 11.5279L13.5327 11.5542L9.06066 22.7107L15.0682 18.3032L18.4547 15.8187L19.9347 21.6991L22.0031 29.9182L24.0716 21.6991L25.5516 15.8187L28.938 18.3032L34.9456 22.7107L32.181 15.7918L30.4736 11.5542L35.9007 11.5477L32.9497 8.15222L30.9834 5.87761L30.3451 5.1395H29.3697H27.0899L27.0909 5.13903H23.573L23.5382 5.02934L24.097 3.29703L23.1734 3.88216L22.0031 0.19957ZM20.2548 8.25767L18.7348 12.9674L13.8062 16.5831L16.0747 10.907L20.2548 8.25767ZM23.7515 8.25767L27.9316 10.907L30.2001 16.5831L25.2715 12.9674L23.7515 8.25767ZM19.4908 7.27241L15.7094 9.57715L12.6434 9.58091L14.7039 7.27288L19.4908 7.27241ZM24.5155 7.27241L29.3029 7.27288L31.3562 9.58091L28.2969 9.57715L24.5155 7.27241ZM22.0031 7.24276L23.9605 13.4019L22.0031 21.1785L20.0458 13.4019L22.0031 7.24276Z" fill="#7c3aed"/>
</g>
<!-- Nose - teal -->
<path d="M23.6676 29.6392L22.0011 33.0144L20.3343 29.6368L19.6423 30.2911L17.5786 32.2438L19.8819 36.8848L22.0011 39.9968L24.1265 36.8805L26.4237 32.2395L24.3558 30.2883L23.6676 29.6392Z" fill="#01D9B1"/>
<!-- Outer wings - purple -->
<path d="M16.9329 19.1482L3.6261 9.12994V5.51138L7.30962 7.09636L9.86573 4.24886L0 0.00327301V10.939L14.1108 21.5626L15.8982 24.9138L16.3313 28.3361L19.6128 25.3831L19.4118 23.7963L16.9329 19.1482ZM43.9985 0.00327301V10.939L29.8881 21.5626L28.1002 24.9138L27.6465 28.4966L24.3631 25.5634L24.5871 23.7963L27.066 19.1482L40.3719 9.12994V5.51138L36.6889 7.09636L34.1328 4.24839L43.9985 0.00327301Z" fill="#7c3aed"/>
<!-- Text BUDBO - green -->
<path d="M73.7937 19.0342L75.03 17.7452V17.2035L73.7937 15.9145H60.4106V19.0342H73.7937ZM74.1972 26.7407L75.4334 25.4518V24.91L74.1972 23.6211H60.4106V26.7407H74.1972ZM54.6673 31.3269V11.3276H77.3055L80.7733 14.9424V19.3051L79.0347 21.117L81.1767 23.3502V27.7122L77.7089 31.3269H54.6673Z" fill="#01D9B1"/>
<path d="M88.1746 31.3273L84.7076 27.7125V11.328H90.4501V25.4514L91.6864 26.7403H104.237L105.473 25.4514V11.328H111.216V27.7125L107.749 31.3273H88.1746Z" fill="#01D9B1"/>
<path d="M134.338 26.6006L135.574 25.3116V17.2032L134.338 15.9143H120.551V26.6006H134.338ZM114.808 31.3274V11.3274H137.849L141.317 14.9429V27.7119L137.849 31.3274H114.808Z" fill="#01D9B1"/>
<path d="M163.912 19.0342L165.149 17.7452V17.2035L163.912 15.9145H150.529V19.0342H163.912ZM164.316 26.7407L165.552 25.4518V24.91L164.316 23.6211H150.529V26.7407H164.316ZM144.787 31.3269V11.3276H167.425L170.892 14.9424V19.3051L169.154 21.117L171.295 23.3502V27.7122L167.828 31.3269H144.787Z" fill="#01D9B1"/>
<path d="M194.356 26.7407L195.593 25.4518V17.2035L194.356 15.9145H181.806L180.57 17.2035V25.4518L181.806 26.7407H194.356ZM178.293 31.3276L174.826 27.7121V14.9424L178.293 11.3276H197.868L201.336 14.9424V27.7121L197.868 31.3276H178.293Z" fill="#01D9B1"/>
</svg>
